<?xml version="1.0" standalone="no"?>
<!DOCTYPE svg PUBLIC "-//W3C//DTD SVG 20010904//EN"
 "http://www.w3.org/TR/2001/REC-SVG-20010904/DTD/svg10.dtd">
<svg version="1.0" xmlns="http://www.w3.org/2000/svg"
 width="459.000000pt" height="459.000000pt" viewBox="0 0 459.000000 459.000000"
 preserveAspectRatio="xMidYMid meet">
<metadata>
Created by potrace 1.14, written by Peter Selinger 2001-2017
</metadata>
<g transform="translate(0.000000,459.000000) scale(0.100000,-0.100000)"
fill="#000000" stroke="none">
<path d="M1734 4531 c-2 -2 -4 -64 -4 -138 0 -99 -3 -133 -12 -134 -7 -1 -69
-2 -138 -3 l-125 -1 -3 -140 -3 -140 -137 0 -137 0 -2 -134 c-1 -73 -4 -136
-8 -139 -3 -3 -66 -5 -139 -5 l-134 1 1 -134 c0 -74 -2 -136 -5 -139 -3 -3
-66 -7 -139 -8 l-134 -2 0 -275 0 -275 -140 -5 -140 -5 0 -137 -1 -138 137 0
c101 0 138 -3 141 -12 3 -11 3 -236 -1 -260 -1 -5 -63 -8 -139 -8 l-137 0 0
-137 0 -138 -140 -3 -140 -3 1 -412 c1 -226 2 -415 3 -420 0 -4 54 -7 119 -6
64 0 126 0 137 0 20 -1 21 -7 20 -138 l0 -138 95 -2 c52 -1 115 -2 140 -2 l45
-1 -1 -138 -1 -138 131 1 c72 0 136 -1 141 -2 10 -3 12 -241 2 -267 -4 -10
-36 -13 -132 -12 -69 1 -130 -1 -133 -4 -10 -7 -11 -264 -1 -270 4 -3 569 -5
1256 -5 l1248 0 5 140 5 140 265 -1 c146 0 270 1 276 3 7 3 11 41 12 106 0 56
0 118 1 137 l1 35 137 0 138 0 0 277 0 278 30 1 c17 0 80 1 140 2 l110 2 0
275 1 275 137 3 c75 1 138 6 138 10 1 4 2 130 3 280 l1 272 -136 0 c-101 0
-138 3 -141 13 -3 10 -2 233 1 260 1 4 63 7 139 7 l137 0 -1 273 c-1 149 -2
276 -3 280 0 4 -60 7 -132 6 -80 -1 -134 3 -138 9 -3 6 -6 69 -5 140 l0 130
-558 0 -558 0 0 -139 0 -139 -140 0 -140 0 0 140 0 140 -92 -1 c-51 -1 -114
-1 -140 0 l-48 1 0 278 0 279 138 -1 137 0 0 279 0 280 -553 0 c-305 0 -555
-2 -558 -4z"/>
</g>
</svg>
